# xmcd
#
# Track frame offsets:
#	150
#	25914
#	35899
#	48033
#	62202
#	72841
#	90255
#	107695
#	131493
#	149868
#	159878
#	173568
#	189794
#	208657
#	225725
#	242468
#	260808
#	274129
#	292813
#	307448
#
# Disc length: 4372 seconds
#
# Revision: 1
# Processed by: cddbd v1.5.2PL0 Copyright (c) Steve Scherf et al.
# Submitted via: audiograbber 1.83.01
#
DISCID=20111214
DTITLE=John Denver - The Unplugged Collection [CD2)
DYEAR=1900
DGENRE=Country
TTITLE0=Flying For Me
TTITLE1=I Guess He'd Rather Be In Colorado
TTITLE2=It Amazes Me
TTITLE3=Rocky Mountain Suite
TTITLE4=Granma's Feather Bed
TTITLE5=I Want To Live
TTITLE6=Come And Let Me Look In Your Eyes
TTITLE7=Sunshine On My Shoulders
TTITLE8=Looking For Space
TTITLE9=The Eagle And The Hawk
TTITLE10=Whispering Jesse
TTITLE11=Two Different Directions
TTITLE12=Dreamland Express
TTITLE13=It's About Time
TTITLE14=Autograph
TTITLE15=Windsong
TTITLE16=This Old Guitar
TTITLE17=Wild Montana Skies
TTITLE18=Shanghai Breezes
TTITLE19=Sing Australia
EXTD=
EXTT0=
EXTT1=
EXTT2=
EXTT3=
EXTT4=
EXTT5=
EXTT6=
EXTT7=
EXTT8=
EXTT9=
EXTT10=
EXTT11=
EXTT12=
EXTT13=
EXTT14=
EXTT15=
EXTT16=
EXTT17=
EXTT18=
EXTT19=
PLAYORDER=
